<svg width="938" height="123" viewBox="0 0 938 123" fill="none" xmlns="http://www.w3.org/2000/svg">
<path d="M232.13 96.9001C229.49 96.9001 227.12 96.7801 225.02 96.5401C222.98 96.3001 220.73 95.8501 218.27 95.1901C215.51 94.4701 213.23 93.5401 211.43 92.4001C209.63 91.2001 208.13 89.5501 206.93 87.4501C205.67 85.3501 205.04 82.8601 205.04 79.9801V54.3301C205.04 42.5701 214.07 36.6901 232.13 36.6901C236.75 36.6901 242.93 37.3501 250.67 38.6701V49.2001C243.71 47.5201 237.59 46.6801 232.31 46.6801C230.09 46.6801 228.35 46.7401 227.09 46.8601C225.89 46.9801 224.63 47.2801 223.31 47.7601C220.49 48.7201 219.08 50.8501 219.08 54.1501V78.9901C219.08 84.2701 223.91 86.9101 233.57 86.9101C237.71 86.9101 243.53 86.0401 251.03 84.3001V94.9201C244.61 96.2401 238.31 96.9001 232.13 96.9001Z" fill="#00BDFF"/>
<path d="M280.341 96.9001C277.641 96.9001 275.421 96.8101 273.681 96.6301C271.941 96.4501 270.081 96.0901 268.101 95.5501C265.941 94.9501 264.201 94.1101 262.881 93.0301C261.561 91.8901 260.451 90.3001 259.551 88.2601C258.651 86.2801 258.201 83.8801 258.201 81.0601V68.1901C258.201 65.3101 258.651 62.7901 259.551 60.6301C260.451 58.4701 261.621 56.7901 263.061 55.5901C264.321 54.5701 265.971 53.7301 268.011 53.0701C270.111 52.3501 272.151 51.9001 274.131 51.7201C276.411 51.6001 278.481 51.5401 280.341 51.5401C283.101 51.5401 285.291 51.6301 286.911 51.8101C288.591 51.9301 290.421 52.2901 292.401 52.8901C294.561 53.5501 296.301 54.4501 297.621 55.5901C299.001 56.7301 300.171 58.3501 301.131 60.4501C302.031 62.6101 302.481 65.1901 302.481 68.1901V81.0601C302.481 83.7601 302.031 86.1301 301.131 88.1701C300.291 90.2101 299.181 91.8001 297.801 92.9401C296.601 93.9601 294.951 94.8001 292.851 95.4601C290.811 96.0601 288.801 96.4501 286.821 96.6301C285.021 96.8101 282.861 96.9001 280.341 96.9001ZM280.341 88.7101C282.801 88.7101 284.661 88.5301 285.921 88.1701C287.181 87.7501 288.051 87.1201 288.531 86.2801C289.071 85.4401 289.341 84.2101 289.341 82.5901V66.1201C289.341 63.7201 288.711 62.0401 287.451 61.0801C286.191 60.1201 283.821 59.6401 280.341 59.6401C276.861 59.6401 274.491 60.1201 273.231 61.0801C271.971 62.0401 271.341 63.7201 271.341 66.1201V82.5901C271.341 84.2101 271.581 85.4401 272.061 86.2801C272.601 87.1201 273.501 87.7501 274.761 88.1701C276.021 88.5301 277.881 88.7101 280.341 88.7101Z" fill="#00BDFF"/>
<path d="M312.723 52.4401H325.863V57.7501C326.703 53.6101 330.993 51.5401 338.733 51.5401C342.813 51.5401 345.903 52.0801 348.003 53.1601C350.103 54.1801 351.513 55.8001 352.233 58.0201C352.953 55.7401 354.333 54.0901 356.373 53.0701C358.473 52.0501 361.623 51.5401 365.823 51.5401C369.603 51.5401 372.513 51.9901 374.553 52.8901C376.593 53.7301 378.003 55.0501 378.783 56.8501C379.623 58.6501 380.043 61.0501 380.043 64.0501V96.0001H366.903V65.8501C366.903 63.9301 366.783 62.5801 366.543 61.8001C366.303 60.9601 365.763 60.3901 364.923 60.0901C364.143 59.7901 362.763 59.6401 360.783 59.6401C358.323 59.6401 356.553 59.7901 355.473 60.0901C354.453 60.3901 353.763 60.9601 353.403 61.8001C353.103 62.5801 352.953 63.9301 352.953 65.8501V96.0001H339.813V65.8501C339.813 63.9301 339.693 62.5801 339.453 61.8001C339.213 60.9601 338.673 60.3901 337.833 60.0901C337.053 59.7901 335.673 59.6401 333.693 59.6401C331.233 59.6401 329.463 59.7901 328.383 60.0901C327.363 60.3901 326.673 60.9601 326.313 61.8001C326.013 62.5801 325.863 63.9301 325.863 65.8501V96.0001H312.723V52.4401Z" fill="#00BDFF"/>
<path d="M391.561 52.4401H403.981V56.7601C404.761 54.8401 406.291 53.4901 408.571 52.7101C410.851 51.9301 414.241 51.5401 418.741 51.5401C422.521 51.5401 425.551 51.8401 427.831 52.4401C430.171 53.0401 431.941 54.0001 433.141 55.3201C434.281 56.6401 435.061 58.1101 435.481 59.7301C435.901 61.2901 436.111 63.4501 436.111 66.2101V80.5201C436.111 84.8401 435.481 88.1701 434.221 90.5101C432.961 92.8501 431.011 94.5001 428.371 95.4601C425.791 96.4201 422.251 96.9001 417.751 96.9001C413.431 96.9001 410.311 96.5401 408.391 95.8201C406.471 95.1001 405.241 93.6901 404.701 91.5901V114.72H391.561V52.4401ZM413.701 88.7101C416.281 88.7101 418.231 88.5301 419.551 88.1701C420.871 87.8101 421.771 87.1801 422.251 86.2801C422.731 85.3801 422.971 84.0301 422.971 82.2301V66.1201C422.971 64.1401 422.761 62.7301 422.341 61.8901C421.921 60.9901 421.081 60.3901 419.821 60.0901C418.561 59.7901 416.491 59.6401 413.611 59.6401C411.151 59.6401 409.261 59.8501 407.941 60.2701C406.681 60.6901 405.811 61.3501 405.331 62.2501C404.911 63.1501 404.701 64.4401 404.701 66.1201V82.2301C404.701 84.0301 404.911 85.3801 405.331 86.2801C405.811 87.1801 406.681 87.8101 407.941 88.1701C409.201 88.5301 411.121 88.7101 413.701 88.7101Z" fill="#00BDFF"/>
<path d="M467.285 96.9001C464.585 96.9001 462.365 96.8101 460.625 96.6301C458.885 96.4501 457.025 96.0901 455.045 95.5501C452.885 94.9501 451.145 94.1101 449.825 93.0301C448.505 91.8901 447.395 90.3001 446.495 88.2601C445.595 86.2801 445.145 83.8801 445.145 81.0601V68.1901C445.145 65.3101 445.595 62.7901 446.495 60.6301C447.395 58.4701 448.565 56.7901 450.005 55.5901C451.265 54.5701 452.915 53.7301 454.955 53.0701C457.055 52.3501 459.095 51.9001 461.075 51.7201C463.355 51.6001 465.425 51.5401 467.285 51.5401C470.045 51.5401 472.235 51.6301 473.855 51.8101C475.535 51.9301 477.365 52.2901 479.345 52.8901C481.505 53.5501 483.245 54.4501 484.565 55.5901C485.945 56.7301 487.115 58.3501 488.075 60.4501C488.975 62.6101 489.425 65.1901 489.425 68.1901V81.0601C489.425 83.7601 488.975 86.1301 488.075 88.1701C487.235 90.2101 486.125 91.8001 484.745 92.9401C483.545 93.9601 481.895 94.8001 479.795 95.4601C477.755 96.0601 475.745 96.4501 473.765 96.6301C471.965 96.8101 469.805 96.9001 467.285 96.9001ZM467.285 88.7101C469.745 88.7101 471.605 88.5301 472.865 88.1701C474.125 87.7501 474.995 87.1201 475.475 86.2801C476.015 85.4401 476.285 84.2101 476.285 82.5901V66.1201C476.285 63.7201 475.655 62.0401 474.395 61.0801C473.135 60.1201 470.765 59.6401 467.285 59.6401C463.805 59.6401 461.435 60.1201 460.175 61.0801C458.915 62.0401 458.285 63.7201 458.285 66.1201V82.5901C458.285 84.2101 458.525 85.4401 459.005 86.2801C459.545 87.1201 460.445 87.7501 461.705 88.1701C462.965 88.5301 464.825 88.7101 467.285 88.7101Z" fill="#00BDFF"/>
<path d="M499.666 52.4401H512.626V57.7501C513.646 53.6101 518.296 51.5401 526.576 51.5401C532.156 51.5401 536.056 52.5601 538.276 54.6001C540.556 56.5801 541.696 59.7301 541.696 64.0501V96.0001H528.556V65.7601C528.556 64.0801 528.376 62.8201 528.016 61.9801C527.716 61.1401 527.056 60.5401 526.036 60.1801C525.076 59.8201 523.576 59.6401 521.536 59.6401C518.956 59.6401 517.066 59.8201 515.866 60.1801C514.666 60.4801 513.856 61.0501 513.436 61.8901C513.016 62.7301 512.806 64.0201 512.806 65.7601V96.0001H499.666V52.4401Z" fill="#00BDFF"/>
<path d="M575.062 96.9001C559.642 96.9001 551.932 92.1901 551.932 82.7701V67.1101C551.932 61.6501 553.672 57.6901 557.152 55.2301C560.692 52.7701 566.122 51.5401 573.442 51.5401C580.342 51.5401 585.382 52.7401 588.562 55.1401C591.802 57.4801 593.422 61.4701 593.422 67.1101V77.7301H565.162V81.6901C565.162 84.2101 566.062 86.0101 567.862 87.0901C569.662 88.1701 572.902 88.7101 577.582 88.7101C581.902 88.7101 586.762 88.0801 592.162 86.8201V95.1901C586.822 96.3301 581.122 96.9001 575.062 96.9001ZM580.912 70.2601V63.9601C580.912 62.5201 580.312 61.4401 579.112 60.7201C577.972 60.0001 576.022 59.6401 573.262 59.6401C570.082 59.6401 567.952 60.0001 566.872 60.7201C565.732 61.5001 565.162 62.5801 565.162 63.9601V70.2601H580.912Z" fill="#00BDFF"/>
<path d="M603.465 52.4401H616.425V57.7501C617.445 53.6101 622.095 51.5401 630.375 51.5401C635.955 51.5401 639.855 52.5601 642.075 54.6001C644.355 56.5801 645.495 59.7301 645.495 64.0501V96.0001H632.355V65.7601C632.355 64.0801 632.175 62.8201 631.815 61.9801C631.515 61.1401 630.855 60.5401 629.835 60.1801C628.875 59.8201 627.375 59.6401 625.335 59.6401C622.755 59.6401 620.865 59.8201 619.665 60.1801C618.465 60.4801 617.655 61.0501 617.235 61.8901C616.815 62.7301 616.605 64.0201 616.605 65.7601V96.0001H603.465V52.4401Z" fill="#00BDFF"/>
<path d="M678.771 96.9001C676.551 96.9001 674.691 96.8101 673.191 96.6301C671.691 96.4501 670.191 96.0901 668.691 95.5501C667.011 95.0101 665.631 94.2601 664.551 93.3001C663.531 92.3401 662.691 91.0201 662.031 89.3401C661.311 87.6001 660.951 85.5901 660.951 83.3101V60.5401H652.131V52.4401H660.951V39.8401H674.091V52.4401H686.061V60.5401H674.091V81.0601C674.091 83.1601 674.271 84.7501 674.631 85.8301C674.991 86.8501 675.681 87.6001 676.701 88.0801C677.721 88.5001 679.281 88.7101 681.381 88.7101C682.221 88.7101 683.781 88.5601 686.061 88.2601V96.4501C683.241 96.7501 680.811 96.9001 678.771 96.9001Z" fill="#00BDFF"/>
<path d="M740.753 96.9001C738.113 96.9001 735.743 96.7801 733.643 96.5401C731.603 96.3001 729.353 95.8501 726.893 95.1901C724.133 94.4701 721.853 93.5401 720.053 92.4001C718.253 91.2001 716.753 89.5501 715.553 87.4501C714.293 85.3501 713.663 82.8601 713.663 79.9801V54.3301C713.663 42.5701 722.693 36.6901 740.753 36.6901C745.373 36.6901 751.553 37.3501 759.293 38.6701V49.2001C752.333 47.5201 746.213 46.6801 740.933 46.6801C738.713 46.6801 736.973 46.7401 735.713 46.8601C734.513 46.9801 733.253 47.2801 731.933 47.7601C729.113 48.7201 727.703 50.8501 727.703 54.1501V78.9901C727.703 84.2701 732.533 86.9101 742.193 86.9101C746.333 86.9101 752.153 86.0401 759.653 84.3001V94.9201C753.233 96.2401 746.933 96.9001 740.753 96.9001Z" fill="#00BDFF"/>
<path d="M768.084 33.0001H781.224V57.7501C782.064 53.6101 786.654 51.5401 794.994 51.5401C800.574 51.5401 804.474 52.5601 806.694 54.6001C808.974 56.5801 810.114 59.7301 810.114 64.0501V96.0001H796.974V65.5801C796.974 63.9001 796.794 62.6701 796.434 61.8901C796.134 61.0501 795.504 60.4801 794.544 60.1801C793.584 59.8201 792.054 59.6401 789.954 59.6401C787.374 59.6401 785.484 59.7901 784.284 60.0901C783.084 60.3901 782.274 60.9601 781.854 61.8001C781.434 62.5801 781.224 63.8401 781.224 65.5801V96.0001H768.084V33.0001Z" fill="#00BDFF"/>
<path d="M833.94 96.9001C829.86 96.9001 826.8 96.5401 824.76 95.8201C822.78 95.0401 821.37 93.6901 820.53 91.7701C819.75 89.7901 819.36 86.8501 819.36 82.9501C819.36 79.4701 819.78 76.7401 820.62 74.7601C821.52 72.7801 822.93 71.3701 824.85 70.5301C826.83 69.6301 829.53 69.1801 832.95 69.1801H847.71V66.2101C847.71 64.3501 847.44 62.9701 846.9 62.0701C846.42 61.1701 845.49 60.5401 844.11 60.1801C842.79 59.8201 840.78 59.6401 838.08 59.6401C834.36 59.6401 829.26 60.0001 822.78 60.7201V52.4401C827.52 51.8401 833.07 51.5401 839.43 51.5401C845.01 51.5401 849.3 51.9601 852.3 52.8001C855.36 53.6401 857.55 55.0801 858.87 57.1201C860.19 59.1601 860.85 62.1301 860.85 66.0301V96.0001H847.98V92.0401C846.96 93.7801 845.58 95.0101 843.84 95.7301C842.1 96.5101 838.8 96.9001 833.94 96.9001ZM839.07 88.7101C841.71 88.7101 843.6 88.6201 844.74 88.4401C845.58 88.3201 846.15 88.1401 846.45 87.9001C846.81 87.6601 847.11 87.2701 847.35 86.7301C847.59 86.3101 847.71 85.6801 847.71 84.8401V76.3801H838.71C836.67 76.3801 835.23 76.5301 834.39 76.8301C833.55 77.0701 832.98 77.6101 832.68 78.4501C832.38 79.2301 832.23 80.6401 832.23 82.6801C832.23 84.6601 832.38 86.0401 832.68 86.8201C832.98 87.6001 833.55 88.1101 834.39 88.3501C835.29 88.5901 836.85 88.7101 839.07 88.7101Z" fill="#00BDFF"/>
<path d="M872.41 52.4401H884.92V60.0901C884.92 58.7101 885.49 57.3601 886.63 56.0401C887.77 54.7201 889.21 53.6401 890.95 52.8001C892.75 51.9601 894.52 51.5401 896.26 51.5401H900.94V62.4301H896.44C892.72 62.4301 889.96 63.0001 888.16 64.1401C886.42 65.2801 885.55 67.1701 885.55 69.8101V96.0001H872.41V52.4401Z" fill="#00BDFF"/>
<path d="M929.962 96.9001C927.742 96.9001 925.882 96.8101 924.382 96.6301C922.882 96.4501 921.382 96.0901 919.882 95.5501C918.202 95.0101 916.822 94.2601 915.742 93.3001C914.722 92.3401 913.882 91.0201 913.222 89.3401C912.502 87.6001 912.142 85.5901 912.142 83.3101V60.5401H903.322V52.4401H912.142V39.8401H925.282V52.4401H937.252V60.5401H925.282V81.0601C925.282 83.1601 925.462 84.7501 925.822 85.8301C926.182 86.8501 926.872 87.6001 927.892 88.0801C928.912 88.5001 930.472 88.7101 932.572 88.7101C933.412 88.7101 934.972 88.5601 937.252 88.2601V96.4501C934.432 96.7501 932.002 96.9001 929.962 96.9001Z" fill="#00BDFF"/>
<path fill-rule="evenodd" clip-rule="evenodd" d="M23.3051 43.4731C17.1051 46.7631 2.39707 56.8961 0.171075 79.7921C-0.981925 91.7221 3.70907 102.864 13.7651 112.075C21.2191 118.882 29.0701 122.309 29.8751 122.661C30.8391 123.015 91.9191 123.004 123.176 122.998L132.297 122.997C146.646 118.479 158.014 111.418 164.851 102.382C171.052 94.1791 173.795 84.4861 172.801 74.2651C172.006 66.0191 168.786 58.2111 164.056 51.7631C158.53 42.5831 143.824 35.6661 136.47 34.8761C126.255 13.7781 113.058 1.18906 98.5501 0.0930631C86.7841 -0.829937 76.4901 5.26806 69.4541 11.4971C66.2741 14.3471 63.7301 17.1991 62.0211 19.4361C61.9444 19.4018 61.8684 19.3662 61.7931 19.3291C61.6471 19.2551 61.4976 19.1884 61.3451 19.1291C55.8201 16.8041 45.7641 14.9191 37.1381 19.6561C27.8371 24.7441 24.7761 34.9641 23.8221 42.5961C23.7821 42.9911 23.5831 43.3421 23.3051 43.4731ZM33.2791 49.1151C27.8021 51.8791 14.8141 59.3921 12.8491 78.6271C11.8301 88.6511 13.9731 98.0111 22.8541 105.749C29.4361 111.467 34.3691 112.346 35.0811 112.642C35.9311 112.94 89.8731 112.93 117.476 112.926L125.53 112.925C138.203 109.129 147.242 105.197 153.28 97.6051C158.756 90.7151 161.178 83.5711 160.3 74.9851C159.598 68.0571 155.755 61.4971 151.577 56.0801C146.697 48.3671 134.71 44.5561 128.216 43.8931C119.195 26.1681 109.541 13.5921 96.7281 12.6711C86.3381 11.8971 78.2471 17.0191 72.0331 22.2511C69.2251 24.6471 65.9781 29.0421 64.4691 30.9211C64.4061 30.8951 64.3391 30.8641 64.2681 30.8311C64.1388 30.7692 64.0067 30.7134 63.8721 30.6641C58.9931 28.7101 50.1121 26.1261 42.4941 30.1061C34.2811 34.3811 34.5771 41.9661 33.7341 48.3791C33.6991 48.7091 33.5241 49.0051 33.2791 49.1151ZM46.6981 80.3551L69.2981 68.8671L46.6981 57.3791V44.3671L80.6981 62.3031C83.6981 63.8671 83.6981 73.8671 80.6981 75.4321L46.6981 93.3671V80.3551ZM84.4551 88.3671H128.698C129.698 92.3671 129.698 94.3671 128.698 98.3671H84.4551C83.4451 94.3071 83.4451 92.3271 84.4551 88.3671Z" fill="#00BDFF"/>
</svg>
